<?xml version="1.0" standalone="no"?>
<!DOCTYPE svg PUBLIC "-//W3C//DTD SVG 20010904//EN"
 "http://www.w3.org/TR/2001/REC-SVG-20010904/DTD/svg10.dtd">
<svg version="1.0" xmlns="http://www.w3.org/2000/svg"
 width="3120.000000pt" height="3120.000000pt" viewBox="0 0 3120.000000 3120.000000"
 preserveAspectRatio="xMidYMid meet">
<metadata>
Created by potrace 1.11, written by Peter Selinger 2001-2013
</metadata>
<g transform="translate(0.000000,3120.000000) scale(0.100000,-0.100000)"
fill="#000000" stroke="none">
<path d="M2778 19895 c-2 -2 -32 -6 -68 -9 -123 -11 -147 -15 -275 -45 -117
-28 -115 -27 -149 -40 -16 -7 -31 -9 -34 -6 -3 2 -10 1 -16 -4 -6 -5 -35 -19
-65 -31 -207 -81 -412 -214 -570 -371 -35 -33 -117 -127 -136 -153 -11 -16
-25 -33 -30 -40 -21 -22 -75 -105 -75 -114 0 -5 -7 -15 -15 -22 -12 -10 -84
-150 -128 -250 -19 -45 -65 -191 -72 -232 -7 -39 -70 -304 -90 -378 -8 -30
-12 -56 -10 -59 3 -2 0 -10 -6 -18 -6 -7 -8 -13 -4 -13 4 0 2 -7 -5 -15 -7 -8
-10 -15 -7 -15 3 0 -1 -23 -9 -50 -8 -28 -12 -55 -9 -60 3 -6 2 -10 -3 -10 -5
0 -9 -6 -9 -12 -1 -17 -10 -55 -22 -96 -5 -18 -9 -33 -9 -35 2 -4 -23 -111
-29 -127 -4 -8 -7 -23 -8 -32 -2 -10 -3 -19 -5 -20 -1 -2 -3 -10 -5 -18 -2 -8
-11 -46 -20 -85 -9 -38 -18 -77 -20 -85 -2 -8 -8 -35 -15 -60 -7 -25 -13 -52
-15 -60 -2 -9 -19 -81 -39 -160 -19 -80 -37 -156 -40 -170 -2 -14 -14 -61 -25
-106 -12 -45 -24 -91 -26 -103 -3 -11 -7 -30 -10 -42 -2 -11 -7 -29 -10 -39
-3 -10 -8 -29 -11 -42 -16 -73 -17 -75 -44 -188 -22 -92 -31 -129 -36 -145 -2
-5 -6 -23 -9 -40 -3 -16 -9 -39 -12 -50 -7 -21 -8 -26 -16 -65 -3 -14 -12 -52
-20 -85 -9 -33 -18 -71 -21 -85 -3 -14 -17 -70 -31 -125 -14 -55 -28 -111 -30
-125 -2 -14 -11 -52 -20 -85 -8 -33 -17 -68 -20 -78 -2 -10 -6 -26 -9 -35 -5
-17 -12 -51 -23 -107 -3 -16 -9 -38 -14 -47 -5 -10 -7 -18 -5 -18 3 0 1 -12
-5 -27 -6 -16 -12 -39 -15 -53 -2 -14 -6 -34 -8 -45 -11 -42 -28 -111 -31
-125 -2 -8 -17 -73 -35 -145 -17 -71 -33 -137 -35 -145 -2 -8 -13 -53 -25
-100 -12 -47 -22 -92 -22 -100 0 -8 -5 -21 -11 -27 -5 -7 -7 -13 -5 -13 3 0
-1 -26 -9 -57 -8 -32 -25 -103 -38 -158 -13 -55 -35 -147 -50 -205 -30 -116
-34 -133 -40 -170 -2 -14 -11 -50 -20 -80 -19 -69 -17 -150 7 -214 18 -50 91
-136 115 -136 7 0 13 -4 13 -8 0 -9 61 -31 110 -40 14 -3 224 -6 467 -6 l442
-1 6 -25 c3 -14 7 -43 10 -65 2 -22 4 -40 5 -40 1 0 4 -11 6 -25 3 -14 14 -65
26 -115 12 -49 22 -92 23 -95 0 -3 4 -11 8 -17 5 -7 6 -13 3 -13 -7 0 48 -159
91 -265 31 -75 100 -215 147 -300 37 -66 140 -219 168 -249 10 -11 18 -23 18
-27 0 -4 12 -21 28 -37 15 -17 38 -45 52 -64 52 -68 280 -290 362 -350 20 -15
42 -33 50 -40 8 -7 21 -17 29 -23 9 -5 51 -34 93 -62 43 -29 81 -53 86 -53 5
0 10 -3 12 -7 11 -26 426 -223 501 -238 9 -2 21 -6 25 -9 5 -3 19 -7 33 -10
13 -3 56 -15 94 -26 39 -11 79 -22 90 -24 11 -2 58 -12 105 -21 47 -9 101 -18
120 -20 19 -3 55 -7 80 -11 77 -10 442 -13 505 -4 33 5 79 10 103 11 24 2 45
7 48 11 3 5 9 6 14 3 8 -5 149 22 235 45 22 6 47 12 55 14 8 1 22 5 30 8 8 4
53 18 100 33 93 30 228 85 330 136 102 50 309 178 375 230 56 46 97 79 130
104 101 79 301 291 396 420 24 33 46 62 49 65 8 7 103 156 130 205 38 67 106
206 134 275 15 36 31 74 36 85 11 22 69 199 75 228 2 10 6 26 9 35 3 9 8 28
10 42 3 14 10 44 16 68 5 23 13 59 16 80 3 20 8 48 10 62 3 14 7 34 8 45 2 11
4 22 5 25 1 4 360 5 382 1 4 0 9 -29 13 -63 4 -35 11 -79 16 -98 5 -19 11 -48
14 -65 3 -16 13 -57 22 -90 8 -33 17 -67 19 -75 2 -8 10 -34 19 -57 8 -24 13
-43 9 -43 -3 0 -1 -6 4 -12 5 -7 18 -35 27 -63 10 -27 25 -66 34 -85 8 -19 14
-35 12 -35 -6 0 123 -250 138 -267 8 -10 12 -18 8 -18 -4 0 -2 -6 4 -12 5 -7
43 -62 83 -123 39 -60 79 -117 88 -125 8 -8 20 -22 25 -32 14 -24 129 -153
209 -233 97 -96 136 -130 235 -205 47 -36 87 -67 90 -71 3 -3 23 -16 45 -29
22 -13 42 -27 45 -31 3 -4 21 -16 41 -27 76 -42 84 -47 89 -52 11 -11 216
-110 228 -110 6 0 12 -4 12 -10 0 -5 8 -10 18 -10 10 0 37 -9 59 -20 35 -17
203 -74 251 -85 9 -3 35 -9 57 -15 45 -12 58 -15 135 -32 30 -6 66 -12 80 -13
14 0 30 -3 35 -6 6 -3 30 -7 55 -8 25 -1 61 -6 81 -10 47 -11 423 -10 491 0
29 4 76 11 103 14 73 9 100 13 100 15 0 1 9 3 20 4 11 2 34 6 50 10 17 3 40 9
53 11 56 12 68 15 121 31 31 9 63 18 71 19 8 2 17 4 20 5 3 1 8 2 13 1 4 0 7
3 7 7 0 5 6 9 13 9 43 0 439 179 459 208 4 5 8 6 8 2 0 -4 6 -3 13 3 6 5 63
44 126 85 62 41 128 88 146 103 17 15 54 45 81 67 60 48 294 279 294 290 0 4
8 15 18 24 10 9 38 43 62 76 24 33 50 66 56 73 7 7 23 30 35 52 13 22 26 40
31 40 4 0 8 5 8 11 0 6 13 29 29 53 38 55 161 293 161 312 0 8 5 14 10 14 6 0
10 11 10 24 0 14 4 27 9 30 28 18 135 394 158 560 12 89 -37 81 464 83 244 1
453 4 464 6 60 12 86 21 96 33 6 8 17 14 23 14 7 0 31 19 54 43 79 80 99 191
63 334 -11 44 -22 89 -24 99 -2 10 -6 26 -9 34 -5 15 -27 107 -32 132 -1 7 -5
22 -9 33 -3 11 -8 31 -11 45 -8 40 -12 60 -46 196 -17 71 -33 136 -35 145 -2
8 -10 44 -19 80 -9 35 -18 73 -21 84 -3 11 -11 47 -20 80 -8 33 -17 72 -20 87
-3 15 -9 37 -14 50 -5 13 -9 26 -9 31 0 7 -3 21 -17 82 -2 11 -13 55 -23 98
-11 42 -17 77 -14 77 2 0 0 6 -5 13 -6 6 -14 30 -18 52 -5 22 -9 45 -10 50 -3
11 -11 44 -90 370 -26 105 -48 199 -49 210 -2 11 -6 27 -9 35 -4 8 -8 27 -11
41 -2 14 -13 61 -25 105 -30 117 -62 246 -67 274 -3 14 -16 68 -29 120 -13 52
-26 106 -29 120 -3 14 -12 52 -21 85 -9 33 -18 69 -20 80 -2 11 -6 31 -9 45
-3 14 -8 34 -10 45 -3 11 -9 35 -15 53 -5 17 -7 32 -4 32 3 0 1 6 -4 13 -6 6
-10 19 -11 27 0 8 -26 119 -57 245 -31 127 -58 237 -60 245 -2 8 -8 35 -14 60
-21 82 -23 93 -35 155 -1 6 -4 15 -8 20 -3 6 -9 30 -14 55 -10 56 -9 51 -17
75 -3 11 -8 31 -11 45 -3 14 -12 54 -21 90 -9 36 -18 73 -20 83 -2 10 -7 28
-11 40 -4 12 -9 29 -10 37 -6 35 -14 71 -38 165 -13 55 -27 116 -30 135 -3 19
-10 50 -15 68 -5 18 -11 36 -12 40 -4 15 -9 33 -16 50 -3 9 -7 22 -8 27 -14
62 -107 257 -167 348 -21 32 -38 61 -38 65 0 4 -14 21 -30 39 -17 18 -30 36
-30 40 0 23 -217 242 -295 298 -15 11 -35 28 -44 38 -8 9 -18 17 -22 17 -4 0
-33 18 -65 39 -141 94 -328 174 -514 222 -25 6 -46 11 -47 11 -2 -1 -17 4 -35
9 -18 5 -53 11 -78 14 -25 3 -56 8 -70 12 -39 9 -73 12 -240 17 -147 5 -158 4
-212 -18 -63 -26 -126 -73 -127 -95 -1 -8 -4 -11 -8 -7 -8 8 -50 -81 -61 -132
-31 -139 44 -288 174 -347 59 -27 86 -31 242 -40 63 -4 124 -8 135 -11 12 -2
36 -6 52 -8 17 -3 59 -12 95 -21 36 -9 72 -18 80 -20 8 -2 15 -4 15 -5 0 -1 7
-3 15 -5 30 -7 145 -57 160 -70 8 -7 25 -16 38 -19 12 -4 22 -12 22 -17 0 -5
4 -8 9 -7 24 7 186 -135 276 -243 27 -33 85 -127 85 -139 0 -6 5 -10 10 -10 6
0 9 -3 8 -7 -1 -5 5 -21 14 -38 8 -16 28 -66 43 -109 26 -78 31 -95 41 -146 2
-14 27 -117 55 -230 28 -113 53 -214 55 -225 3 -11 9 -40 15 -65 5 -25 14 -63
20 -85 12 -47 27 -112 34 -141 3 -11 23 -93 45 -182 22 -89 40 -171 40 -182 0
-11 4 -20 8 -20 4 0 8 -10 9 -22 1 -25 2 -28 28 -128 9 -36 19 -74 21 -85 7
-35 12 -58 38 -160 14 -55 27 -111 30 -125 3 -14 9 -40 15 -59 6 -18 10 -36 9
-40 0 -3 1 -8 2 -11 4 -10 48 -191 56 -230 3 -14 10 -43 16 -65 12 -45 10 -38
28 -122 8 -35 18 -63 23 -63 4 0 5 -5 2 -10 -4 -6 0 -34 9 -63 8 -28 17 -63
20 -77 6 -30 11 -51 25 -110 7 -25 14 -54 16 -65 3 -11 7 -29 10 -40 7 -30 36
-147 42 -170 3 -11 6 -29 7 -41 1 -11 6 -25 10 -32 4 -7 5 -12 1 -12 -3 0 -1
-8 4 -18 6 -11 12 -30 15 -43 2 -13 14 -64 25 -114 12 -49 24 -101 27 -115 3
-14 10 -43 16 -65 6 -22 13 -47 14 -55 3 -13 33 -140 50 -205 5 -22 12 -49 18
-80 2 -11 12 -49 21 -85 9 -36 19 -74 21 -86 2 -11 13 -56 24 -100 12 -43 23
-90 26 -104 3 -14 17 -70 30 -125 25 -95 28 -117 25 -140 -1 -7 -76 -10 -212
-10 -240 0 -220 -7 -233 90 -5 42 -27 151 -41 205 -19 75 -36 137 -40 148 -2
7 -5 14 -5 17 -4 38 -167 417 -182 423 -4 2 -8 8 -8 13 0 11 -119 211 -130
219 -4 3 -13 15 -19 28 -7 13 -19 31 -26 40 -8 9 -37 46 -65 82 -99 126 -243
277 -345 362 -23 18 -47 38 -55 45 -62 51 -93 75 -150 114 -36 24 -66 47 -68
52 -2 4 -8 7 -13 7 -5 0 -28 12 -52 27 -65 42 -296 163 -312 163 -3 0 -24 9
-48 19 -45 21 -239 90 -271 96 -10 3 -55 13 -100 24 -44 11 -94 23 -111 26
-16 2 -41 7 -55 11 -14 3 -41 7 -60 8 -19 2 -35 4 -35 5 0 15 -490 21 -605 8
-197 -22 -312 -46 -500 -105 -47 -14 -87 -27 -90 -27 -9 -3 -45 -17 -75 -30
-16 -7 -59 -25 -95 -40 -111 -46 -252 -123 -372 -202 -44 -29 -82 -53 -84 -53
-2 0 -12 -8 -22 -17 -10 -10 -56 -47 -102 -83 -105 -81 -295 -270 -378 -375
-35 -44 -69 -87 -77 -96 -29 -37 -145 -218 -171 -269 -16 -30 -31 -57 -34 -60
-5 -5 -73 -150 -105 -225 -68 -157 -139 -421 -162 -595 -3 -25 -9 -47 -14 -50
-6 -4 -333 -5 -376 -1 -6 0 -12 9 -12 19 -1 39 -18 149 -25 161 -2 3 -7 22
-10 41 -14 83 -49 214 -72 267 -8 17 -14 36 -14 42 0 6 -6 25 -14 43 -8 18
-21 49 -29 68 -53 128 -107 239 -118 246 -5 3 -7 9 -4 14 3 4 -2 13 -10 20 -8
7 -15 17 -15 22 0 5 -33 59 -73 121 -125 191 -194 274 -358 437 -122 122 -132
130 -249 218 -41 32 -76 60 -78 65 -2 4 -8 7 -13 7 -11 0 -72 42 -77 53 -2 4
-8 7 -14 7 -5 0 -23 9 -38 20 -45 32 -227 124 -325 165 -49 21 -103 44 -120
51 -16 7 -57 20 -90 29 -33 10 -64 20 -70 23 -5 4 -17 7 -25 9 -8 1 -33 6 -55
12 -106 27 -184 44 -220 48 -22 2 -51 6 -65 9 -26 5 -71 9 -180 19 -86 7 -254
7 -360 -1 -47 -4 -100 -7 -117 -8 -18 0 -33 -3 -33 -6 0 -3 -12 -5 -27 -5 -16
1 -32 -1 -38 -4 -5 -3 -19 -6 -30 -7 -11 0 -37 -4 -57 -8 -21 -4 -41 -7 -45
-8 -5 0 -28 -6 -52 -14 -25 -7 -48 -11 -53 -8 -4 3 -8 0 -8 -7 0 -7 -3 -10 -6
-6 -3 3 -23 -1 -45 -8 -21 -8 -39 -12 -39 -8 0 3 -6 1 -12 -5 -7 -5 -29 -13
-48 -17 -19 -4 -41 -12 -47 -17 -7 -6 -13 -7 -13 -3 0 4 -6 3 -12 -2 -7 -6
-31 -16 -53 -23 -22 -7 -44 -16 -50 -20 -5 -5 -13 -9 -18 -9 -22 -2 -190 -82
-199 -96 -4 -5 -8 -6 -8 -2 0 5 -12 -1 -26 -12 -15 -12 -31 -21 -36 -21 -12 0
-282 -178 -318 -210 -14 -12 -37 -32 -52 -46 -16 -13 -28 -22 -28 -19 0 3 -60
-54 -134 -127 -128 -127 -230 -246 -306 -357 -19 -28 -43 -61 -52 -72 -10 -12
-18 -28 -18 -35 0 -7 -4 -14 -8 -16 -24 -9 -209 -375 -204 -400 1 -5 -3 -8 -8
-8 -5 0 -9 -3 -8 -7 2 -9 -9 -48 -22 -78 -14 -31 -59 -181 -65 -217 -3 -17 -8
-35 -11 -40 -3 -4 -7 -18 -9 -30 -3 -13 -9 -45 -15 -73 -15 -74 -23 -127 -24
-152 0 -13 -5 -24 -10 -24 -6 -1 -107 -2 -224 -3 l-212 -1 6 30 c3 17 10 44
15 60 10 36 69 279 75 315 3 14 9 39 15 57 5 17 12 44 15 60 3 15 9 42 14 58
5 17 11 41 14 55 2 14 11 52 19 85 9 33 18 71 21 85 8 40 13 60 36 150 12 47
24 95 26 107 2 12 22 93 44 180 21 87 42 172 45 188 8 40 13 60 15 60 1 0 3 9
5 20 2 11 23 94 45 185 22 91 42 174 45 185 4 23 1 12 50 210 20 83 38 157 40
165 2 8 17 72 34 141 17 69 33 137 35 150 3 13 5 25 7 27 1 1 2 5 3 10 3 11
40 166 42 175 1 4 2 8 4 10 1 1 3 10 5 21 2 10 9 40 15 66 6 26 13 56 15 66 2
11 4 19 5 19 1 0 3 9 5 20 2 11 8 35 13 53 6 17 9 32 6 32 -3 0 0 8 5 18 5 9
11 31 14 47 7 39 15 72 21 93 3 9 7 30 10 45 3 16 10 43 15 60 6 18 12 43 15
57 8 43 57 244 63 260 3 8 7 24 9 35 1 11 10 49 19 85 9 36 17 72 19 80 7 27
47 195 52 213 2 9 6 25 8 35 2 9 12 46 21 82 9 36 18 74 19 85 4 25 36 137 45
150 3 6 6 12 6 15 2 16 48 107 62 122 9 10 12 18 7 18 -5 0 -4 4 2 8 5 4 21
25 34 47 74 121 243 273 375 336 28 13 52 27 55 30 9 11 116 48 202 70 115 29
153 35 298 44 52 3 118 8 145 11 55 5 138 41 177 77 32 30 77 97 82 123 2 10
8 30 14 44 10 28 8 131 -4 158 -4 9 -8 23 -10 31 -8 42 -129 174 -147 160 -2
-2 -11 2 -19 9 -9 7 -27 16 -39 19 -25 6 -265 13 -271 8z m1157 -4127 c33 -5
76 -11 95 -13 19 -2 46 -7 60 -10 14 -3 37 -7 52 -10 15 -3 38 -9 52 -15 15
-5 26 -8 26 -5 0 5 186 -58 243 -82 116 -49 382 -201 407 -232 3 -3 23 -20 45
-36 141 -105 320 -304 432 -481 60 -94 178 -334 188 -383 2 -9 13 -45 25 -81
12 -36 23 -74 26 -85 2 -11 6 -29 8 -40 3 -11 10 -42 16 -70 6 -27 13 -68 16
-90 2 -22 7 -58 10 -80 8 -60 8 -342 0 -405 -4 -30 -14 -91 -23 -135 -9 -44
-17 -87 -18 -95 -3 -18 -15 -69 -21 -90 -3 -8 -6 -17 -6 -20 -5 -45 -142 -359
-190 -435 -52 -80 -112 -171 -118 -175 -3 -3 -13 -15 -22 -28 -23 -34 -138
-161 -177 -196 -19 -17 -39 -37 -45 -44 -6 -7 -40 -36 -76 -64 -36 -29 -67
-55 -70 -58 -35 -41 -369 -226 -442 -246 -5 -1 -10 -3 -13 -4 -3 -1 -8 -3 -12
-5 -5 -1 -15 -5 -23 -8 -23 -10 -113 -39 -130 -42 -8 -2 -15 -4 -15 -5 0 -1
-7 -3 -16 -5 -10 -1 -48 -10 -85 -18 -68 -15 -84 -18 -214 -36 -68 -9 -355 -7
-425 3 -80 12 -101 16 -150 26 -27 6 -61 13 -75 15 -14 3 -50 13 -80 22 -30 9
-57 17 -60 18 -22 5 -120 40 -140 50 -14 7 -65 32 -115 56 -211 101 -433 271
-598 459 -78 90 -167 211 -167 228 0 7 -4 12 -8 12 -5 0 -14 10 -20 23 -6 12
-25 46 -42 75 -16 29 -30 60 -30 67 0 8 -3 15 -8 15 -18 0 -131 305 -148 400
-2 14 -9 43 -14 65 -24 93 -38 257 -35 420 2 94 6 181 9 195 2 14 7 39 10 55
13 85 20 116 38 185 25 95 24 92 30 110 3 8 13 38 23 65 55 163 159 354 280
515 70 93 253 285 310 325 43 30 90 69 93 78 2 4 8 7 13 7 6 0 42 22 82 48 40
26 95 59 122 72 28 14 52 28 55 31 8 10 125 58 235 95 145 50 247 73 400 90
28 3 51 7 53 9 7 7 323 1 377 -7z m5505 -3 c19 -3 49 -7 65 -10 71 -9 202 -39
240 -54 11 -5 52 -19 90 -31 39 -12 92 -33 119 -46 28 -13 56 -24 63 -24 7 0
13 -5 13 -12 0 -6 3 -8 7 -5 3 4 11 3 17 -2 6 -5 36 -22 66 -38 68 -36 104
-57 110 -63 14 -14 70 -50 79 -50 5 0 11 -4 13 -8 2 -4 32 -30 68 -57 89 -68
241 -223 320 -325 77 -100 154 -216 164 -247 4 -13 12 -23 17 -23 5 0 8 -3 7
-7 -1 -5 7 -26 19 -48 53 -102 132 -319 147 -400 6 -37 14 -71 20 -93 3 -9 8
-37 11 -62 3 -25 8 -52 11 -61 2 -9 7 -59 9 -110 3 -52 7 -113 8 -136 2 -24 1
-43 -2 -43 -4 0 -7 -28 -7 -63 -1 -68 -13 -198 -19 -208 -2 -3 -7 -21 -10 -40
-4 -19 -8 -38 -9 -44 -1 -5 -8 -36 -15 -68 -7 -33 -19 -74 -27 -93 -8 -19 -14
-36 -13 -39 1 -7 -12 -44 -50 -137 -11 -29 -22 -61 -22 -68 0 -3 -6 -12 -13
-20 -7 -8 -26 -42 -42 -75 -24 -52 -165 -271 -183 -285 -3 -3 -24 -27 -46 -55
-56 -71 -209 -219 -282 -273 -35 -25 -63 -49 -63 -54 0 -4 -5 -8 -12 -8 -6 0
-26 -11 -44 -25 -18 -14 -35 -25 -38 -25 -3 0 -22 -12 -43 -26 -63 -43 -272
-140 -373 -173 -124 -40 -219 -63 -320 -76 -25 -3 -56 -8 -70 -11 -46 -10
-344 -12 -410 -3 -36 5 -85 11 -110 13 -157 17 -444 113 -601 202 -34 19 -63
34 -65 34 -6 0 -177 112 -190 125 -6 5 -28 24 -49 40 -52 41 -140 122 -184
169 -20 21 -55 60 -78 85 -24 25 -43 49 -43 54 0 4 -11 20 -24 35 -35 39 -96
130 -96 142 0 5 -4 10 -8 10 -16 0 -195 377 -190 398 1 4 -8 38 -20 76 -12 37
-24 78 -26 90 -2 11 -7 32 -10 46 -3 14 -8 41 -11 60 -2 19 -7 46 -10 60 -23
124 -23 434 0 560 3 14 10 54 16 90 6 36 15 70 20 76 5 6 7 13 4 16 -5 5 57
200 81 258 49 111 123 252 176 333 34 51 64 94 68 97 3 3 13 16 22 29 26 37
139 161 192 211 27 25 61 56 76 70 34 33 138 110 147 111 5 0 17 8 28 18 18
15 54 39 120 79 48 28 160 82 172 82 7 0 13 4 13 9 0 5 10 11 23 14 21 6 162
55 162 57 0 1 11 3 24 6 14 2 30 9 38 15 7 6 13 9 13 7 0 -3 26 1 58 9 92 22
107 25 227 39 28 3 51 7 53 9 6 6 375 -3 412 -10z"/>
<path d="M20159 16216 c-98 -35 -156 -98 -186 -201 -5 -17 -8 -990 -7 -2235 1
-1869 3 -2211 15 -2243 17 -45 79 -126 97 -127 6 0 12 -3 12 -8 0 -25 172 -62
186 -40 3 4 10 6 15 2 5 -3 15 -1 22 4 7 6 17 11 22 13 53 11 112 67 147 137
l23 47 1 2210 c1 2468 7 2279 -70 2358 -42 43 -89 83 -93 79 -2 -1 -4 -2 -5
-1 -57 17 -139 20 -179 5z"/>
<path d="M25631 16213 c-24 -8 -50 -20 -59 -26 -39 -31 -81 -79 -98 -114 -18
-37 -19 -89 -22 -1880 -1 -1014 -6 -1843 -10 -1843 -4 0 -24 24 -44 53 -21 28
-49 66 -63 82 -13 17 -28 35 -32 40 -75 96 -136 173 -146 185 -7 8 -35 44 -63
80 -27 36 -51 67 -54 70 -5 4 -103 129 -210 269 -20 25 -43 55 -52 66 -24 29
-109 136 -138 175 -14 18 -29 38 -35 44 -5 6 -23 29 -39 51 -17 22 -33 42 -36
45 -3 3 -37 46 -75 95 -38 50 -75 97 -82 105 -7 8 -63 80 -125 160 -62 80
-121 154 -130 165 -9 11 -46 58 -83 105 -36 47 -72 93 -80 103 -9 10 -28 34
-43 55 -15 21 -33 44 -40 52 -13 15 -59 74 -172 219 -36 46 -71 89 -77 96 -7
8 -13 18 -13 23 0 6 -4 12 -8 14 -4 2 -23 23 -42 48 -19 25 -37 47 -40 50 -6
5 -41 50 -77 96 -12 16 -44 56 -70 90 -26 33 -58 74 -70 90 -13 16 -37 47 -54
69 -16 22 -43 56 -59 75 -16 19 -60 76 -99 125 -39 50 -74 95 -78 100 -5 6
-24 30 -43 55 -19 25 -39 50 -45 57 -5 6 -20 24 -31 40 -18 23 -163 208 -207
263 -7 8 -52 66 -101 129 -92 117 -152 180 -173 181 -6 0 -13 4 -15 9 -7 19
-105 38 -188 36 -135 -4 -224 -57 -274 -165 l-21 -45 0 -2205 c-1 -2378 -4
-2247 51 -2335 26 -41 105 -95 149 -102 157 -27 288 57 318 205 9 44 12 517
12 1910 -1 1019 2 1852 6 1852 4 0 9 -4 11 -9 3 -9 50 -69 90 -115 15 -17 28
-36 28 -43 0 -6 4 -13 9 -15 8 -2 90 -104 173 -213 13 -16 43 -55 68 -87 25
-31 56 -71 70 -89 14 -18 47 -60 73 -93 26 -34 56 -72 67 -86 11 -14 50 -64
87 -111 37 -47 79 -101 93 -119 14 -18 63 -81 109 -139 46 -58 93 -119 105
-134 11 -16 26 -34 31 -40 6 -7 37 -46 68 -87 32 -41 70 -90 85 -109 15 -19
48 -62 74 -95 26 -34 57 -71 68 -83 11 -12 20 -27 20 -33 0 -5 3 -10 8 -10 4
0 18 -16 31 -36 13 -19 37 -49 53 -67 15 -18 40 -50 56 -71 15 -22 42 -56 59
-75 18 -20 33 -39 33 -42 0 -4 16 -24 35 -45 19 -22 35 -45 35 -51 0 -7 4 -13
8 -13 5 0 23 -20 41 -45 18 -25 46 -60 62 -78 16 -17 29 -37 29 -44 0 -7 4
-13 8 -13 5 0 49 -52 98 -116 49 -64 97 -125 106 -137 55 -70 121 -154 132
-168 7 -9 37 -47 66 -85 29 -38 63 -81 74 -95 22 -27 25 -31 156 -199 44 -58
89 -114 98 -125 9 -11 30 -38 46 -60 16 -22 32 -42 35 -45 4 -3 22 -25 41 -50
19 -25 40 -51 46 -57 7 -7 22 -28 34 -48 12 -19 25 -35 29 -35 4 0 14 -12 23
-27 9 -16 25 -38 35 -50 31 -36 46 -55 102 -128 67 -87 185 -205 206 -205 8 0
15 -4 15 -9 0 -13 82 -31 141 -31 80 0 129 19 180 70 85 85 78 -138 76 2362
l-2 2223 -21 45 c-24 52 -88 117 -136 138 -46 20 -135 23 -187 5z"/>
<path d="M27531 16219 c-94 -28 -168 -113 -189 -214 -10 -51 -8 -4388 2 -4435
20 -92 109 -185 196 -206 41 -9 101 -12 115 -5 6 3 18 7 28 8 57 9 137 79 169
148 23 50 23 50 25 604 l3 555 518 518 519 518 64 -82 c35 -45 69 -86 74 -92
6 -6 22 -27 36 -46 15 -19 35 -45 45 -57 25 -29 33 -39 148 -183 55 -69 106
-132 113 -140 7 -8 72 -88 143 -178 71 -89 134 -168 140 -175 6 -6 32 -39 58
-72 26 -33 55 -69 64 -80 9 -11 83 -103 164 -205 81 -102 151 -186 156 -188 4
-2 8 -10 8 -18 0 -8 4 -14 8 -14 5 0 23 -20 41 -45 17 -24 38 -51 47 -59 8 -8
31 -37 51 -63 20 -26 39 -50 42 -53 3 -3 18 -21 33 -40 15 -19 37 -47 50 -62
13 -14 32 -39 43 -54 20 -27 41 -53 80 -99 11 -13 29 -36 40 -51 11 -15 25
-32 30 -38 6 -6 39 -47 75 -91 100 -124 132 -150 197 -161 64 -11 87 -11 129
2 124 37 198 137 199 269 0 104 -9 119 -267 437 -40 50 -65 80 -80 98 -7 8
-31 37 -52 65 -22 27 -42 52 -46 55 -3 3 -19 23 -35 45 -17 22 -33 42 -36 45
-3 3 -37 43 -74 90 -37 47 -73 90 -80 95 -6 6 -14 15 -16 21 -2 6 -21 31 -42
55 -20 24 -61 73 -89 109 -29 36 -55 67 -58 70 -3 3 -18 23 -34 45 -17 22 -39
49 -51 60 -11 11 -31 36 -45 55 -13 19 -27 37 -30 40 -3 3 -25 30 -50 60 -25
30 -48 57 -52 58 -5 2 -8 10 -8 18 0 8 -3 14 -8 14 -4 0 -32 32 -62 71 -30 39
-62 79 -70 88 -9 9 -33 39 -55 66 -22 28 -47 59 -57 70 -14 17 -56 68 -128
159 -8 10 -22 26 -30 35 -8 9 -60 73 -114 141 -55 69 -104 127 -108 128 -4 2
-8 10 -8 17 0 7 -4 15 -9 17 -5 2 -30 29 -56 61 l-46 57 536 533 c1146 1136
1210 1202 1230 1242 28 58 27 166 -3 222 -48 91 -129 146 -221 149 -104 3
-169 -34 -301 -171 -41 -42 -131 -135 -200 -205 -69 -70 -249 -255 -400 -410
-151 -155 -337 -346 -413 -424 -76 -77 -247 -253 -380 -390 -133 -136 -296
-303 -362 -371 -66 -67 -246 -251 -400 -409 -446 -458 -505 -517 -506 -509 0
4 -1 602 -1 1328 -1 1041 -4 1330 -14 1369 -16 61 -74 131 -136 163 -52 27
-144 38 -197 22z"/>
<path d="M15546 16188 c-20 -4 -50 -14 -65 -23 -39 -20 -107 -90 -119 -123 -6
-15 -14 -36 -18 -47 -4 -11 -9 -1005 -9 -2210 -2 -2302 -3 -2248 40 -2295 8
-9 15 -20 15 -24 0 -12 47 -55 85 -76 31 -18 51 -23 125 -35 21 -3 99 19 135
38 48 25 136 130 121 144 -3 4 0 13 6 21 10 11 13 188 13 771 l0 756 645 1
c574 1 740 5 845 20 17 2 46 6 65 8 70 9 116 18 200 38 47 11 92 21 100 23 28
6 204 67 249 87 237 105 384 201 531 348 52 53 102 104 110 115 125 164 203
323 265 542 8 29 20 93 31 173 12 87 17 256 10 345 -6 82 -17 179 -21 185 -2
3 -6 21 -9 40 -4 28 -22 94 -60 215 -19 64 -108 229 -167 311 -104 144 -229
261 -394 369 -61 40 -189 105 -205 105 -6 0 -10 4 -10 8 0 5 -6 9 -12 10 -7 0
-49 14 -93 31 -90 34 -237 76 -305 86 -59 10 -78 13 -98 19 -9 2 -48 7 -87 11
-38 3 -88 9 -110 12 -61 9 -1767 9 -1809 1z m1720 -502 c50 -4 102 -9 115 -11
13 -3 40 -7 59 -10 19 -3 46 -7 60 -10 47 -10 75 -16 85 -19 6 -2 24 -6 40
-11 17 -4 35 -10 40 -14 6 -3 19 -7 30 -8 11 -2 44 -15 73 -28 30 -14 60 -25
67 -25 8 0 15 -3 17 -7 2 -5 23 -19 48 -32 25 -13 70 -42 100 -64 65 -47 196
-180 205 -208 4 -10 10 -19 14 -19 17 0 112 -213 127 -285 2 -11 7 -31 9 -45
29 -138 25 -444 -6 -502 -5 -10 -8 -18 -5 -18 3 0 -3 -24 -13 -52 -105 -305
-346 -531 -687 -647 -162 -55 -266 -74 -469 -86 -115 -6 -1282 -8 -1292 -2 -6
4 -10 2083 -4 2107 2 7 1281 4 1387 -4z"/>
</g>
</svg>
